<?xml version="1.0" encoding="UTF-8"?>
<!DOCTYPE svg PUBLIC "-//W3C//DTD SVG 1.1//EN" "http://www.w3.org/Graphics/SVG/1.1/DTD/svg11.dtd">
<svg xmlns="http://www.w3.org/2000/svg" xmlns:xlink="http://www.w3.org/1999/xlink" version="1.1" width="728px" height="871px" viewBox="-0.5 -0.5 728 871" style="background-color: rgb(255, 255, 255);"><defs/><rect fill="#ffffff" width="100%" height="100%" x="0" y="0"/><g><g data-cell-id="uesbl0IYvUySg_IaHAjN-0"><g data-cell-id="uesbl0IYvUySg_IaHAjN-1"><g data-cell-id="uesbl0IYvUySg_IaHAjN-2"><g><rect x="7" y="40" width="720" height="830" fill="rgb(255, 255, 255)" stroke="rgb(0, 0, 0)" pointer-events="all"/></g></g><g data-cell-id="uesbl0IYvUySg_IaHAjN-3"><g><rect x="0" y="0" width="720" height="40" fill="none" stroke="none" pointer-events="all"/></g><g><g transform="translate(-0.5 -0.5)"><switch><foreignObject pointer-events="none" width="100%" height="100%" requiredFeatures="http://www.w3.org/TR/SVG11/feature#Extensibility" style="overflow: visible; text-align: left;"><div xmlns="http://www.w3.org/1999/xhtml" style="display: flex; align-items: unsafe center; justify-content: unsafe center; width: 718px; height: 1px; padding-top: 20px; margin-left: 1px;"><div data-drawio-colors="color: rgb(0, 0, 0); " style="box-sizing: border-box; font-size: 0px; text-align: center;"><div style="display: inline-block; font-size: 24px; font-family: Helvetica; color: rgb(0, 0, 0); line-height: 1.2; pointer-events: all; white-space: normal; overflow-wrap: normal;">CSVアップロード確認画面</div></div></div></foreignObject><text x="360" y="27" fill="rgb(0, 0, 0)" font-family="&quot;Helvetica&quot;" font-size="24px" text-anchor="middle">CSVアップロード確認画面</text></switch></g></g></g></g><g data-cell-id="uesbl0IYvUySg_IaHAjN-4"><g data-cell-id="uesbl0IYvUySg_IaHAjN-5"><g><rect x="97" y="60" width="200" height="40" fill="none" stroke="none" pointer-events="all"/></g><g><g transform="translate(-0.5 -0.5)"><switch><foreignObject pointer-events="none" width="100%" height="100%" requiredFeatures="http://www.w3.org/TR/SVG11/feature#Extensibility" style="overflow: visible; text-align: left;"><div xmlns="http://www.w3.org/1999/xhtml" style="display: flex; align-items: unsafe center; justify-content: unsafe flex-start; width: 198px; height: 1px; padding-top: 80px; margin-left: 99px;"><div data-drawio-colors="color: rgb(0, 0, 0); " style="box-sizing: border-box; font-size: 0px; text-align: left;"><div style="display: inline-block; font-size: 16px; font-family: Helvetica; color: rgb(0, 0, 0); line-height: 1.2; pointer-events: all; white-space: normal; overflow-wrap: normal;">CSVアップロード確認</div></div></div></foreignObject><text x="99" y="85" fill="rgb(0, 0, 0)" font-family="&quot;Helvetica&quot;" font-size="16px">CSVアップロード確認</text></switch></g></g></g><g data-cell-id="uesbl0IYvUySg_IaHAjN-6"><g><path d="M 97 90 L 667 90" fill="none" stroke="rgb(0, 0, 0)" stroke-miterlimit="10" pointer-events="stroke"/></g></g><g data-cell-id="uesbl0IYvUySg_IaHAjN-7"><g><rect x="97" y="570" width="140" height="30" rx="4.5" ry="4.5" fill="#1ba1e2" stroke="#006eaf" pointer-events="all"/></g><g><g transform="translate(-0.5 -0.5)"><switch><foreignObject pointer-events="none" width="100%" height="100%" requiredFeatures="http://www.w3.org/TR/SVG11/feature#Extensibility" style="overflow: visible; text-align: left;"><div xmlns="http://www.w3.org/1999/xhtml" style="display: flex; align-items: unsafe center; justify-content: unsafe center; width: 138px; height: 1px; padding-top: 585px; margin-left: 98px;"><div data-drawio-colors="color: #ffffff; " style="box-sizing: border-box; font-size: 0px; text-align: center;"><div style="display: inline-block; font-size: 12px; font-family: Helvetica; color: rgb(255, 255, 255); line-height: 1.2; pointer-events: all; white-space: normal; overflow-wrap: normal;">キャンセル</div></div></div></foreignObject><text x="167" y="589" fill="#ffffff" font-family="&quot;Helvetica&quot;" font-size="12px" text-anchor="middle">キャンセル</text></switch></g></g></g><g data-cell-id="uesbl0IYvUySg_IaHAjN-8"><g><rect x="507" y="570" width="140" height="30" rx="4.5" ry="4.5" fill="#1ba1e2" stroke="#006eaf" pointer-events="all"/></g><g><g transform="translate(-0.5 -0.5)"><switch><foreignObject pointer-events="none" width="100%" height="100%" requiredFeatures="http://www.w3.org/TR/SVG11/feature#Extensibility" style="overflow: visible; text-align: left;"><div xmlns="http://www.w3.org/1999/xhtml" style="display: flex; align-items: unsafe center; justify-content: unsafe center; width: 138px; height: 1px; padding-top: 585px; margin-left: 508px;"><div data-drawio-colors="color: #ffffff; " style="box-sizing: border-box; font-size: 0px; text-align: center;"><div style="display: inline-block; font-size: 12px; font-family: Helvetica; color: rgb(255, 255, 255); line-height: 1.2; pointer-events: all; white-space: normal; overflow-wrap: normal;">更新</div></div></div></foreignObject><text x="577" y="589" fill="#ffffff" font-family="&quot;Helvetica&quot;" font-size="12px" text-anchor="middle">更新</text></switch></g></g></g><g data-cell-id="HsDV2E3R9TC5ZJ5DnG8_-1"><g><rect x="77" y="180" width="609.75" height="360" fill="rgb(255, 255, 255)" stroke="none" pointer-events="none"/><path d="M 77 180 L 686.75 180 L 686.75 540 L 77 540 L 77 180" fill="none" stroke="rgb(0, 0, 0)" stroke-linecap="square" stroke-miterlimit="10" pointer-events="none"/><path d="M 77 205 L 137 205 L 291 205 L 391 205 L 471 205 L 561 205 L 687 205" fill="none" stroke="rgb(0, 0, 0)" stroke-miterlimit="10" pointer-events="none"/><path d="M 77 240 L 137 240 L 291 240 L 391 240 L 471 240 L 561 240 L 687 240" fill="none" stroke="rgb(0, 0, 0)" stroke-miterlimit="10" pointer-events="none"/><path d="M 77 270 L 137 270 L 291 270 L 391 270 L 471 270 L 561 270 L 687 270" fill="none" stroke="rgb(0, 0, 0)" stroke-miterlimit="10" pointer-events="none"/><path d="M 77 300 L 137 300 L 291 300 L 391 300 L 471 300 L 561 300 L 687 300" fill="none" stroke="rgb(0, 0, 0)" stroke-miterlimit="10" pointer-events="none"/><path d="M 77 330 L 137 330 L 291 330 L 391 330 L 471 330 L 561 330 L 687 330" fill="none" stroke="rgb(0, 0, 0)" stroke-miterlimit="10" pointer-events="none"/><path d="M 77 360 L 137 360 L 291 360 L 391 360 L 471 360 L 561 360 L 687 360" fill="none" stroke="rgb(0, 0, 0)" stroke-miterlimit="10" pointer-events="none"/><path d="M 77 390 L 137 390 L 291 390 L 391 390 L 471 390 L 561 390 L 687 390" fill="none" stroke="rgb(0, 0, 0)" stroke-miterlimit="10" pointer-events="none"/><path d="M 77 420 L 137 420 L 291 420 L 391 420 L 471 420 L 561 420 L 687 420" fill="none" stroke="rgb(0, 0, 0)" stroke-miterlimit="10" pointer-events="none"/><path d="M 77 450 L 137 450 L 291 450 L 391 450 L 471 450 L 561 450 L 687 450" fill="none" stroke="rgb(0, 0, 0)" stroke-miterlimit="10" pointer-events="none"/><path d="M 77 480 L 137 480 L 291 480 L 391 480 L 471 480 L 561 480 L 687 480" fill="none" stroke="rgb(0, 0, 0)" stroke-miterlimit="10" pointer-events="none"/><path d="M 77 510 L 137 510 L 291 510 L 391 510 L 471 510 L 561 510 L 687 510" fill="none" stroke="rgb(0, 0, 0)" stroke-miterlimit="10" pointer-events="none"/><path d="M 137 180 L 137 205 L 137 240 L 137 270 L 137 300 L 137 330 L 137 360 L 137 390 L 137 420 L 137 450 L 137 480 L 137 510 L 137 540" fill="none" stroke="rgb(0, 0, 0)" stroke-miterlimit="10" pointer-events="none"/><path d="M 291 180 L 291 205 L 291 240 L 291 270 L 291 300 L 291 330 L 291 360 L 291 390 L 291 420 L 291 450 L 291 480 L 291 510 L 291 540" fill="none" stroke="rgb(0, 0, 0)" stroke-miterlimit="10" pointer-events="none"/><path d="M 391 180 L 391 205 L 391 240 L 391 270 L 391 300 L 391 330 L 391 360 L 391 390 L 391 420 L 391 450 L 391 480 L 391 510 L 391 540" fill="none" stroke="rgb(0, 0, 0)" stroke-miterlimit="10" pointer-events="none"/><path d="M 471 180 L 471 205 L 471 240 L 471 270 L 471 300 L 471 330 L 471 360 L 471 390 L 471 420 L 471 450 L 471 480 L 471 510 L 471 540" fill="none" stroke="rgb(0, 0, 0)" stroke-miterlimit="10" pointer-events="none"/><path d="M 561 180 L 561 205 L 561 240 L 561 270 L 561 300 L 561 330 L 561 360 L 561 390 L 561 420 L 561 450 L 561 480 L 561 510 L 561 540" fill="none" stroke="rgb(0, 0, 0)" stroke-miterlimit="10" pointer-events="none"/></g><g data-cell-id="HsDV2E3R9TC5ZJ5DnG8_-2"><g/><g data-cell-id="HsDV2E3R9TC5ZJ5DnG8_-3"><g><rect x="77" y="180" width="60" height="25" fill="none" stroke="none" pointer-events="all"/><path d="M 77 180 M 137 180 M 137 205 M 77 205" fill="none" stroke="rgb(0, 0, 0)" stroke-linecap="square" stroke-miterlimit="10" pointer-events="all"/></g><g><g transform="translate(-0.5 -0.5)"><switch><foreignObject pointer-events="none" width="100%" height="100%" requiredFeatures="http://www.w3.org/TR/SVG11/feature#Extensibility" style="overflow: visible; text-align: left;"><div xmlns="http://www.w3.org/1999/xhtml" style="display: flex; align-items: unsafe center; justify-content: unsafe center; width: 58px; height: 1px; padding-top: 193px; margin-left: 78px;"><div data-drawio-colors="color: rgb(0, 0, 0); " style="box-sizing: border-box; font-size: 0px; text-align: center; max-height: 21px; overflow: hidden;"><div style="display: inline-block; font-size: 12px; font-family: Helvetica; color: rgb(0, 0, 0); line-height: 1.2; pointer-events: all; white-space: normal; overflow-wrap: normal;">LPID</div></div></div></foreignObject><text x="107" y="196" fill="rgb(0, 0, 0)" font-family="&quot;Helvetica&quot;" font-size="12px" text-anchor="middle">LPID</text></switch></g></g></g><g data-cell-id="HsDV2E3R9TC5ZJ5DnG8_-4"><g><rect x="137" y="180" width="154" height="25" fill="none" stroke="none" pointer-events="all"/><path d="M 137 180 M 291 180 M 291 205 M 137 205" fill="none" stroke="rgb(0, 0, 0)" stroke-linecap="square" stroke-miterlimit="10" pointer-events="all"/></g><g><g transform="translate(-0.5 -0.5)"><switch><foreignObject pointer-events="none" width="100%" height="100%" requiredFeatures="http://www.w3.org/TR/SVG11/feature#Extensibility" style="overflow: visible; text-align: left;"><div xmlns="http://www.w3.org/1999/xhtml" style="display: flex; align-items: unsafe center; justify-content: unsafe center; width: 152px; height: 1px; padding-top: 193px; margin-left: 138px;"><div data-drawio-colors="color: rgb(0, 0, 0); " style="box-sizing: border-box; font-size: 0px; text-align: center; max-height: 21px; overflow: hidden;"><div style="display: inline-block; font-size: 12px; font-family: Helvetica; color: rgb(0, 0, 0); line-height: 1.2; pointer-events: all; white-space: normal; overflow-wrap: normal;">タイプ名称</div></div></div></foreignObject><text x="214" y="196" fill="rgb(0, 0, 0)" font-family="&quot;Helvetica&quot;" font-size="12px" text-anchor="middle">タイプ名称</text></switch></g></g></g><g data-cell-id="HsDV2E3R9TC5ZJ5DnG8_-5"><g><rect x="291" y="180" width="100" height="25" fill="none" stroke="none" pointer-events="all"/><path d="M 291 180 M 391 180 M 391 205 M 291 205" fill="none" stroke="rgb(0, 0, 0)" stroke-linecap="square" stroke-miterlimit="10" pointer-events="all"/></g><g><g transform="translate(-0.5 -0.5)"><switch><foreignObject pointer-events="none" width="100%" height="100%" requiredFeatures="http://www.w3.org/TR/SVG11/feature#Extensibility" style="overflow: visible; text-align: left;"><div xmlns="http://www.w3.org/1999/xhtml" style="display: flex; align-items: unsafe center; justify-content: unsafe center; width: 98px; height: 1px; padding-top: 193px; margin-left: 292px;"><div data-drawio-colors="color: rgb(0, 0, 0); " style="box-sizing: border-box; font-size: 0px; text-align: center; max-height: 21px; overflow: hidden;"><div style="display: inline-block; font-size: 12px; font-family: Helvetica; color: rgb(0, 0, 0); line-height: 1.2; pointer-events: all; white-space: normal; overflow-wrap: normal;">板厚</div></div></div></foreignObject><text x="341" y="196" fill="rgb(0, 0, 0)" font-family="&quot;Helvetica&quot;" font-size="12px" text-anchor="middle">板厚</text></switch></g></g></g><g data-cell-id="HsDV2E3R9TC5ZJ5DnG8_-6"><g><rect x="391" y="180" width="80" height="25" fill="none" stroke="none" pointer-events="all"/><path d="M 391 180 M 471 180 M 471 205 M 391 205" fill="none" stroke="rgb(0, 0, 0)" stroke-linecap="square" stroke-miterlimit="10" pointer-events="all"/></g><g><g transform="translate(-0.5 -0.5)"><switch><foreignObject pointer-events="none" width="100%" height="100%" requiredFeatures="http://www.w3.org/TR/SVG11/feature#Extensibility" style="overflow: visible; text-align: left;"><div xmlns="http://www.w3.org/1999/xhtml" style="display: flex; align-items: unsafe center; justify-content: unsafe center; width: 78px; height: 1px; padding-top: 193px; margin-left: 392px;"><div data-drawio-colors="color: rgb(0, 0, 0); " style="box-sizing: border-box; font-size: 0px; text-align: center; max-height: 21px; overflow: hidden;"><div style="display: inline-block; font-size: 12px; font-family: Helvetica; color: rgb(0, 0, 0); line-height: 1.2; pointer-events: all; white-space: normal; overflow-wrap: normal;">ピッチ</div></div></div></foreignObject><text x="431" y="196" fill="rgb(0, 0, 0)" font-family="&quot;Helvetica&quot;" font-size="12px" text-anchor="middle">ピッチ</text></switch></g></g></g><g data-cell-id="HsDV2E3R9TC5ZJ5DnG8_-7"><g><rect x="471" y="180" width="90" height="25" fill="none" stroke="none" pointer-events="all"/><path d="M 471 180 M 561 180 M 561 205 M 471 205" fill="none" stroke="rgb(0, 0, 0)" stroke-linecap="square" stroke-miterlimit="10" pointer-events="all"/></g><g><g transform="translate(-0.5 -0.5)"><switch><foreignObject pointer-events="none" width="100%" height="100%" requiredFeatures="http://www.w3.org/TR/SVG11/feature#Extensibility" style="overflow: visible; text-align: left;"><div xmlns="http://www.w3.org/1999/xhtml" style="display: flex; align-items: unsafe center; justify-content: unsafe center; width: 88px; height: 1px; padding-top: 193px; margin-left: 472px;"><div data-drawio-colors="color: rgb(0, 0, 0); " style="box-sizing: border-box; font-size: 0px; text-align: center; max-height: 21px; overflow: hidden;"><div style="display: inline-block; font-size: 12px; font-family: Helvetica; color: rgb(0, 0, 0); line-height: 1.2; pointer-events: all; white-space: normal; overflow-wrap: normal;">重さ</div></div></div></foreignObject><text x="516" y="196" fill="rgb(0, 0, 0)" font-family="&quot;Helvetica&quot;" font-size="12px" text-anchor="middle">重さ</text></switch></g></g></g><g data-cell-id="HsDV2E3R9TC5ZJ5DnG8_-8"><g><rect x="561" y="180" width="126" height="25" fill="none" stroke="none" pointer-events="all"/><path d="M 561 180 M 687 180 M 687 205 M 561 205" fill="none" stroke="rgb(0, 0, 0)" stroke-linecap="square" stroke-miterlimit="10" pointer-events="all"/></g><g><g transform="translate(-0.5 -0.5)"><switch><foreignObject pointer-events="none" width="100%" height="100%" requiredFeatures="http://www.w3.org/TR/SVG11/feature#Extensibility" style="overflow: visible; text-align: left;"><div xmlns="http://www.w3.org/1999/xhtml" style="display: flex; align-items: unsafe center; justify-content: unsafe center; width: 124px; height: 1px; padding-top: 193px; margin-left: 562px;"><div data-drawio-colors="color: rgb(0, 0, 0); " style="box-sizing: border-box; font-size: 0px; text-align: center; max-height: 21px; overflow: hidden;"><div style="display: inline-block; font-size: 12px; font-family: Helvetica; color: rgb(0, 0, 0); line-height: 1.2; pointer-events: all; white-space: normal; overflow-wrap: normal;">加工タイプ</div></div></div></foreignObject><text x="624" y="196" fill="rgb(0, 0, 0)" font-family="&quot;Helvetica&quot;" font-size="12px" text-anchor="middle">加工タイプ</text></switch></g></g></g></g><g data-cell-id="HsDV2E3R9TC5ZJ5DnG8_-9"><g/><g data-cell-id="HsDV2E3R9TC5ZJ5DnG8_-10"><g><rect x="77" y="205" width="60" height="35" fill="none" stroke="none" pointer-events="all"/><path d="M 77 205 M 137 205 M 137 240 M 77 240" fill="none" stroke="rgb(0, 0, 0)" stroke-linecap="square" stroke-miterlimit="10" pointer-events="all"/></g><g><g transform="translate(-0.5 -0.5)"><switch><foreignObject pointer-events="none" width="100%" height="100%" requiredFeatures="http://www.w3.org/TR/SVG11/feature#Extensibility" style="overflow: visible; text-align: left;"><div xmlns="http://www.w3.org/1999/xhtml" style="display: flex; align-items: unsafe center; justify-content: unsafe center; width: 58px; height: 1px; padding-top: 223px; margin-left: 78px;"><div data-drawio-colors="color: rgb(0, 0, 0); " style="box-sizing: border-box; font-size: 0px; text-align: center; max-height: 31px; overflow: hidden;"><div style="display: inline-block; font-size: 12px; font-family: Helvetica; color: rgb(0, 0, 0); line-height: 1.2; pointer-events: all; white-space: normal; overflow-wrap: normal;">1</div></div></div></foreignObject><text x="107" y="226" fill="rgb(0, 0, 0)" font-family="&quot;Helvetica&quot;" font-size="12px" text-anchor="middle">1</text></switch></g></g></g><g data-cell-id="HsDV2E3R9TC5ZJ5DnG8_-11"><g><rect x="137" y="205" width="154" height="35" fill="none" stroke="none" pointer-events="all"/><path d="M 137 205 M 291 205 M 291 240 M 137 240" fill="none" stroke="rgb(0, 0, 0)" stroke-linecap="square" stroke-miterlimit="10" pointer-events="all"/></g><g><g transform="translate(-0.5 -0.5)"><switch><foreignObject pointer-events="none" width="100%" height="100%" requiredFeatures="http://www.w3.org/TR/SVG11/feature#Extensibility" style="overflow: visible; text-align: left;"><div xmlns="http://www.w3.org/1999/xhtml" style="display: flex; align-items: unsafe center; justify-content: unsafe flex-start; width: 152px; height: 1px; padding-top: 223px; margin-left: 139px;"><div data-drawio-colors="color: rgb(0, 0, 0); " style="box-sizing: border-box; font-size: 0px; text-align: left; max-height: 31px; overflow: hidden;"><div style="display: inline-block; font-size: 12px; font-family: Helvetica; color: rgb(0, 0, 0); line-height: 1.2; pointer-events: all; white-space: normal; overflow-wrap: normal;">標準</div></div></div></foreignObject><text x="139" y="226" fill="rgb(0, 0, 0)" font-family="&quot;Helvetica&quot;" font-size="12px">標準</text></switch></g></g></g><g data-cell-id="HsDV2E3R9TC5ZJ5DnG8_-12"><g><rect x="291" y="205" width="100" height="35" fill="none" stroke="none" pointer-events="all"/><path d="M 291 205 M 391 205 M 391 240 M 291 240" fill="none" stroke="rgb(0, 0, 0)" stroke-linecap="square" stroke-miterlimit="10" pointer-events="all"/></g><g><g transform="translate(-0.5 -0.5)"><switch><foreignObject pointer-events="none" width="100%" height="100%" requiredFeatures="http://www.w3.org/TR/SVG11/feature#Extensibility" style="overflow: visible; text-align: left;"><div xmlns="http://www.w3.org/1999/xhtml" style="display: flex; align-items: unsafe center; justify-content: unsafe center; width: 98px; height: 1px; padding-top: 223px; margin-left: 292px;"><div data-drawio-colors="color: rgb(0, 0, 0); " style="box-sizing: border-box; font-size: 0px; text-align: center; max-height: 31px; overflow: hidden;"><div style="display: inline-block; font-size: 12px; font-family: Helvetica; color: rgb(0, 0, 0); line-height: 1.2; pointer-events: all; white-space: normal; overflow-wrap: normal;">2.7</div></div></div></foreignObject><text x="341" y="226" fill="rgb(0, 0, 0)" font-family="&quot;Helvetica&quot;" font-size="12px" text-anchor="middle">2.7</text></switch></g></g></g><g data-cell-id="HsDV2E3R9TC5ZJ5DnG8_-13"><g><rect x="391" y="205" width="80" height="35" fill="none" stroke="none" pointer-events="all"/><path d="M 391 205 M 471 205 M 471 240 M 391 240" fill="none" stroke="rgb(0, 0, 0)" stroke-linecap="square" stroke-miterlimit="10" pointer-events="all"/></g><g><g transform="translate(-0.5 -0.5)"><switch><foreignObject pointer-events="none" width="100%" height="100%" requiredFeatures="http://www.w3.org/TR/SVG11/feature#Extensibility" style="overflow: visible; text-align: left;"><div xmlns="http://www.w3.org/1999/xhtml" style="display: flex; align-items: unsafe center; justify-content: unsafe center; width: 78px; height: 1px; padding-top: 223px; margin-left: 392px;"><div data-drawio-colors="color: rgb(0, 0, 0); " style="box-sizing: border-box; font-size: 0px; text-align: center; max-height: 31px; overflow: hidden;"><div style="display: inline-block; font-size: 12px; font-family: Helvetica; color: rgb(0, 0, 0); line-height: 1.2; pointer-events: all; white-space: normal; overflow-wrap: normal;">4</div></div></div></foreignObject><text x="431" y="226" fill="rgb(0, 0, 0)" font-family="&quot;Helvetica&quot;" font-size="12px" text-anchor="middle">4</text></switch></g></g></g><g data-cell-id="HsDV2E3R9TC5ZJ5DnG8_-14"><g><rect x="471" y="205" width="90" height="35" fill="none" stroke="none" pointer-events="all"/><path d="M 471 205 M 561 205 M 561 240 M 471 240" fill="none" stroke="rgb(0, 0, 0)" stroke-linecap="square" stroke-miterlimit="10" pointer-events="all"/></g><g><g transform="translate(-0.5 -0.5)"><switch><foreignObject pointer-events="none" width="100%" height="100%" requiredFeatures="http://www.w3.org/TR/SVG11/feature#Extensibility" style="overflow: visible; text-align: left;"><div xmlns="http://www.w3.org/1999/xhtml" style="display: flex; align-items: unsafe center; justify-content: unsafe center; width: 88px; height: 1px; padding-top: 223px; margin-left: 472px;"><div data-drawio-colors="color: rgb(0, 0, 0); " style="box-sizing: border-box; font-size: 0px; text-align: center; max-height: 31px; overflow: hidden;"><div style="display: inline-block; font-size: 12px; font-family: Helvetica; color: rgb(0, 0, 0); line-height: 1.2; pointer-events: all; white-space: normal; overflow-wrap: normal;">21.9</div></div></div></foreignObject><text x="516" y="226" fill="rgb(0, 0, 0)" font-family="&quot;Helvetica&quot;" font-size="12px" text-anchor="middle">21.9</text></switch></g></g></g><g data-cell-id="HsDV2E3R9TC5ZJ5DnG8_-15"><g><rect x="561" y="205" width="126" height="35" fill="none" stroke="none" pointer-events="all"/><path d="M 561 205 M 687 205 M 687 240 M 561 240" fill="none" stroke="rgb(0, 0, 0)" stroke-linecap="square" stroke-miterlimit="10" pointer-events="all"/></g><g><g transform="translate(-0.5 -0.5)"><switch><foreignObject pointer-events="none" width="100%" height="100%" requiredFeatures="http://www.w3.org/TR/SVG11/feature#Extensibility" style="overflow: visible; text-align: left;"><div xmlns="http://www.w3.org/1999/xhtml" style="display: flex; align-items: unsafe center; justify-content: unsafe center; width: 124px; height: 1px; padding-top: 223px; margin-left: 562px;"><div data-drawio-colors="color: rgb(0, 0, 0); " style="box-sizing: border-box; font-size: 0px; text-align: center; max-height: 31px; overflow: hidden;"><div style="display: inline-block; font-size: 12px; font-family: Helvetica; color: rgb(0, 0, 0); line-height: 1.2; pointer-events: all; white-space: normal; overflow-wrap: normal;">黒皮</div></div></div></foreignObject><text x="624" y="226" fill="rgb(0, 0, 0)" font-family="&quot;Helvetica&quot;" font-size="12px" text-anchor="middle">黒皮</text></switch></g></g></g></g><g data-cell-id="HsDV2E3R9TC5ZJ5DnG8_-16"><g/><g data-cell-id="HsDV2E3R9TC5ZJ5DnG8_-17"><g><rect x="77" y="240" width="60" height="30" fill="none" stroke="none" pointer-events="all"/><path d="M 77 240 M 137 240 M 137 270 M 77 270" fill="none" stroke="rgb(0, 0, 0)" stroke-linecap="square" stroke-miterlimit="10" pointer-events="all"/></g></g><g data-cell-id="HsDV2E3R9TC5ZJ5DnG8_-18"><g><rect x="137" y="240" width="154" height="30" fill="none" stroke="none" pointer-events="all"/><path d="M 137 240 M 291 240 M 291 270 M 137 270" fill="none" stroke="rgb(0, 0, 0)" stroke-linecap="square" stroke-miterlimit="10" pointer-events="all"/></g></g><g data-cell-id="HsDV2E3R9TC5ZJ5DnG8_-19"><g><rect x="291" y="240" width="100" height="30" fill="none" stroke="none" pointer-events="all"/><path d="M 291 240 M 391 240 M 391 270 M 291 270" fill="none" stroke="rgb(0, 0, 0)" stroke-linecap="square" stroke-miterlimit="10" pointer-events="all"/></g></g><g data-cell-id="HsDV2E3R9TC5ZJ5DnG8_-20"><g><rect x="391" y="240" width="80" height="30" fill="none" stroke="none" pointer-events="all"/><path d="M 391 240 M 471 240 M 471 270 M 391 270" fill="none" stroke="rgb(0, 0, 0)" stroke-linecap="square" stroke-miterlimit="10" pointer-events="all"/></g></g><g data-cell-id="HsDV2E3R9TC5ZJ5DnG8_-21"><g><rect x="471" y="240" width="90" height="30" fill="none" stroke="none" pointer-events="all"/><path d="M 471 240 M 561 240 M 561 270 M 471 270" fill="none" stroke="rgb(0, 0, 0)" stroke-linecap="square" stroke-miterlimit="10" pointer-events="all"/></g></g><g data-cell-id="HsDV2E3R9TC5ZJ5DnG8_-22"><g><rect x="561" y="240" width="126" height="30" fill="none" stroke="none" pointer-events="all"/><path d="M 561 240 M 687 240 M 687 270 M 561 270" fill="none" stroke="rgb(0, 0, 0)" stroke-linecap="square" stroke-miterlimit="10" pointer-events="all"/></g></g></g><g data-cell-id="HsDV2E3R9TC5ZJ5DnG8_-23"><g/><g data-cell-id="HsDV2E3R9TC5ZJ5DnG8_-24"><g><rect x="77" y="270" width="60" height="30" fill="none" stroke="none" pointer-events="all"/><path d="M 77 270 M 137 270 M 137 300 M 77 300" fill="none" stroke="rgb(0, 0, 0)" stroke-linecap="square" stroke-miterlimit="10" pointer-events="all"/></g></g><g data-cell-id="HsDV2E3R9TC5ZJ5DnG8_-25"><g><rect x="137" y="270" width="154" height="30" fill="none" stroke="none" pointer-events="all"/><path d="M 137 270 M 291 270 M 291 300 M 137 300" fill="none" stroke="rgb(0, 0, 0)" stroke-linecap="square" stroke-miterlimit="10" pointer-events="all"/></g></g><g data-cell-id="HsDV2E3R9TC5ZJ5DnG8_-26"><g><rect x="291" y="270" width="100" height="30" fill="none" stroke="none" pointer-events="all"/><path d="M 291 270 M 391 270 M 391 300 M 291 300" fill="none" stroke="rgb(0, 0, 0)" stroke-linecap="square" stroke-miterlimit="10" pointer-events="all"/></g></g><g data-cell-id="HsDV2E3R9TC5ZJ5DnG8_-27"><g><rect x="391" y="270" width="80" height="30" fill="none" stroke="none" pointer-events="all"/><path d="M 391 270 M 471 270 M 471 300 M 391 300" fill="none" stroke="rgb(0, 0, 0)" stroke-linecap="square" stroke-miterlimit="10" pointer-events="all"/></g></g><g data-cell-id="HsDV2E3R9TC5ZJ5DnG8_-28"><g><rect x="471" y="270" width="90" height="30" fill="none" stroke="none" pointer-events="all"/><path d="M 471 270 M 561 270 M 561 300 M 471 300" fill="none" stroke="rgb(0, 0, 0)" stroke-linecap="square" stroke-miterlimit="10" pointer-events="all"/></g></g><g data-cell-id="HsDV2E3R9TC5ZJ5DnG8_-29"><g><rect x="561" y="270" width="126" height="30" fill="none" stroke="none" pointer-events="all"/><path d="M 561 270 M 687 270 M 687 300 M 561 300" fill="none" stroke="rgb(0, 0, 0)" stroke-linecap="square" stroke-miterlimit="10" pointer-events="all"/></g></g></g><g data-cell-id="HsDV2E3R9TC5ZJ5DnG8_-30"><g/><g data-cell-id="HsDV2E3R9TC5ZJ5DnG8_-31"><g><rect x="77" y="300" width="60" height="30" fill="none" stroke="none" pointer-events="all"/><path d="M 77 300 M 137 300 M 137 330 M 77 330" fill="none" stroke="rgb(0, 0, 0)" stroke-linecap="square" stroke-miterlimit="10" pointer-events="all"/></g></g><g data-cell-id="HsDV2E3R9TC5ZJ5DnG8_-32"><g><rect x="137" y="300" width="154" height="30" fill="none" stroke="none" pointer-events="all"/><path d="M 137 300 M 291 300 M 291 330 M 137 330" fill="none" stroke="rgb(0, 0, 0)" stroke-linecap="square" stroke-miterlimit="10" pointer-events="all"/></g></g><g data-cell-id="HsDV2E3R9TC5ZJ5DnG8_-33"><g><rect x="291" y="300" width="100" height="30" fill="none" stroke="none" pointer-events="all"/><path d="M 291 300 M 391 300 M 391 330 M 291 330" fill="none" stroke="rgb(0, 0, 0)" stroke-linecap="square" stroke-miterlimit="10" pointer-events="all"/></g></g><g data-cell-id="HsDV2E3R9TC5ZJ5DnG8_-34"><g><rect x="391" y="300" width="80" height="30" fill="none" stroke="none" pointer-events="all"/><path d="M 391 300 M 471 300 M 471 330 M 391 330" fill="none" stroke="rgb(0, 0, 0)" stroke-linecap="square" stroke-miterlimit="10" pointer-events="all"/></g></g><g data-cell-id="HsDV2E3R9TC5ZJ5DnG8_-35"><g><rect x="471" y="300" width="90" height="30" fill="none" stroke="none" pointer-events="all"/><path d="M 471 300 M 561 300 M 561 330 M 471 330" fill="none" stroke="rgb(0, 0, 0)" stroke-linecap="square" stroke-miterlimit="10" pointer-events="all"/></g></g><g data-cell-id="HsDV2E3R9TC5ZJ5DnG8_-36"><g><rect x="561" y="300" width="126" height="30" fill="none" stroke="none" pointer-events="all"/><path d="M 561 300 M 687 300 M 687 330 M 561 330" fill="none" stroke="rgb(0, 0, 0)" stroke-linecap="square" stroke-miterlimit="10" pointer-events="all"/></g></g></g><g data-cell-id="HsDV2E3R9TC5ZJ5DnG8_-37"><g/><g data-cell-id="HsDV2E3R9TC5ZJ5DnG8_-38"><g><rect x="77" y="330" width="60" height="30" fill="none" stroke="none" pointer-events="all"/><path d="M 77 330 M 137 330 M 137 360 M 77 360" fill="none" stroke="rgb(0, 0, 0)" stroke-linecap="square" stroke-miterlimit="10" pointer-events="all"/></g></g><g data-cell-id="HsDV2E3R9TC5ZJ5DnG8_-39"><g><rect x="137" y="330" width="154" height="30" fill="none" stroke="none" pointer-events="all"/><path d="M 137 330 M 291 330 M 291 360 M 137 360" fill="none" stroke="rgb(0, 0, 0)" stroke-linecap="square" stroke-miterlimit="10" pointer-events="all"/></g></g><g data-cell-id="HsDV2E3R9TC5ZJ5DnG8_-40"><g><rect x="291" y="330" width="100" height="30" fill="none" stroke="none" pointer-events="all"/><path d="M 291 330 M 391 330 M 391 360 M 291 360" fill="none" stroke="rgb(0, 0, 0)" stroke-linecap="square" stroke-miterlimit="10" pointer-events="all"/></g></g><g data-cell-id="HsDV2E3R9TC5ZJ5DnG8_-41"><g><rect x="391" y="330" width="80" height="30" fill="none" stroke="none" pointer-events="all"/><path d="M 391 330 M 471 330 M 471 360 M 391 360" fill="none" stroke="rgb(0, 0, 0)" stroke-linecap="square" stroke-miterlimit="10" pointer-events="all"/></g></g><g data-cell-id="HsDV2E3R9TC5ZJ5DnG8_-42"><g><rect x="471" y="330" width="90" height="30" fill="none" stroke="none" pointer-events="all"/><path d="M 471 330 M 561 330 M 561 360 M 471 360" fill="none" stroke="rgb(0, 0, 0)" stroke-linecap="square" stroke-miterlimit="10" pointer-events="all"/></g></g><g data-cell-id="HsDV2E3R9TC5ZJ5DnG8_-43"><g><rect x="561" y="330" width="126" height="30" fill="none" stroke="none" pointer-events="all"/><path d="M 561 330 M 687 330 M 687 360 M 561 360" fill="none" stroke="rgb(0, 0, 0)" stroke-linecap="square" stroke-miterlimit="10" pointer-events="all"/></g></g></g><g data-cell-id="HsDV2E3R9TC5ZJ5DnG8_-44"><g/><g data-cell-id="HsDV2E3R9TC5ZJ5DnG8_-45"><g><rect x="77" y="360" width="60" height="30" fill="none" stroke="none" pointer-events="all"/><path d="M 77 360 M 137 360 M 137 390 M 77 390" fill="none" stroke="rgb(0, 0, 0)" stroke-linecap="square" stroke-miterlimit="10" pointer-events="all"/></g></g><g data-cell-id="HsDV2E3R9TC5ZJ5DnG8_-46"><g><rect x="137" y="360" width="154" height="30" fill="none" stroke="none" pointer-events="all"/><path d="M 137 360 M 291 360 M 291 390 M 137 390" fill="none" stroke="rgb(0, 0, 0)" stroke-linecap="square" stroke-miterlimit="10" pointer-events="all"/></g></g><g data-cell-id="HsDV2E3R9TC5ZJ5DnG8_-47"><g><rect x="291" y="360" width="100" height="30" fill="none" stroke="none" pointer-events="all"/><path d="M 291 360 M 391 360 M 391 390 M 291 390" fill="none" stroke="rgb(0, 0, 0)" stroke-linecap="square" stroke-miterlimit="10" pointer-events="all"/></g></g><g data-cell-id="HsDV2E3R9TC5ZJ5DnG8_-48"><g><rect x="391" y="360" width="80" height="30" fill="none" stroke="none" pointer-events="all"/><path d="M 391 360 M 471 360 M 471 390 M 391 390" fill="none" stroke="rgb(0, 0, 0)" stroke-linecap="square" stroke-miterlimit="10" pointer-events="all"/></g></g><g data-cell-id="HsDV2E3R9TC5ZJ5DnG8_-49"><g><rect x="471" y="360" width="90" height="30" fill="none" stroke="none" pointer-events="all"/><path d="M 471 360 M 561 360 M 561 390 M 471 390" fill="none" stroke="rgb(0, 0, 0)" stroke-linecap="square" stroke-miterlimit="10" pointer-events="all"/></g></g><g data-cell-id="HsDV2E3R9TC5ZJ5DnG8_-50"><g><rect x="561" y="360" width="126" height="30" fill="none" stroke="none" pointer-events="all"/><path d="M 561 360 M 687 360 M 687 390 M 561 390" fill="none" stroke="rgb(0, 0, 0)" stroke-linecap="square" stroke-miterlimit="10" pointer-events="all"/></g></g></g><g data-cell-id="HsDV2E3R9TC5ZJ5DnG8_-51"><g/><g data-cell-id="HsDV2E3R9TC5ZJ5DnG8_-52"><g><rect x="77" y="390" width="60" height="30" fill="none" stroke="none" pointer-events="all"/><path d="M 77 390 M 137 390 M 137 420 M 77 420" fill="none" stroke="rgb(0, 0, 0)" stroke-linecap="square" stroke-miterlimit="10" pointer-events="all"/></g></g><g data-cell-id="HsDV2E3R9TC5ZJ5DnG8_-53"><g><rect x="137" y="390" width="154" height="30" fill="none" stroke="none" pointer-events="all"/><path d="M 137 390 M 291 390 M 291 420 M 137 420" fill="none" stroke="rgb(0, 0, 0)" stroke-linecap="square" stroke-miterlimit="10" pointer-events="all"/></g></g><g data-cell-id="HsDV2E3R9TC5ZJ5DnG8_-54"><g><rect x="291" y="390" width="100" height="30" fill="none" stroke="none" pointer-events="all"/><path d="M 291 390 M 391 390 M 391 420 M 291 420" fill="none" stroke="rgb(0, 0, 0)" stroke-linecap="square" stroke-miterlimit="10" pointer-events="all"/></g></g><g data-cell-id="HsDV2E3R9TC5ZJ5DnG8_-55"><g><rect x="391" y="390" width="80" height="30" fill="none" stroke="none" pointer-events="all"/><path d="M 391 390 M 471 390 M 471 420 M 391 420" fill="none" stroke="rgb(0, 0, 0)" stroke-linecap="square" stroke-miterlimit="10" pointer-events="all"/></g></g><g data-cell-id="HsDV2E3R9TC5ZJ5DnG8_-56"><g><rect x="471" y="390" width="90" height="30" fill="none" stroke="none" pointer-events="all"/><path d="M 471 390 M 561 390 M 561 420 M 471 420" fill="none" stroke="rgb(0, 0, 0)" stroke-linecap="square" stroke-miterlimit="10" pointer-events="all"/></g></g><g data-cell-id="HsDV2E3R9TC5ZJ5DnG8_-57"><g><rect x="561" y="390" width="126" height="30" fill="none" stroke="none" pointer-events="all"/><path d="M 561 390 M 687 390 M 687 420 M 561 420" fill="none" stroke="rgb(0, 0, 0)" stroke-linecap="square" stroke-miterlimit="10" pointer-events="all"/></g></g></g><g data-cell-id="HsDV2E3R9TC5ZJ5DnG8_-58"><g/><g data-cell-id="HsDV2E3R9TC5ZJ5DnG8_-59"><g><rect x="77" y="420" width="60" height="30" fill="none" stroke="none" pointer-events="all"/><path d="M 77 420 M 137 420 M 137 450 M 77 450" fill="none" stroke="rgb(0, 0, 0)" stroke-linecap="square" stroke-miterlimit="10" pointer-events="all"/></g></g><g data-cell-id="HsDV2E3R9TC5ZJ5DnG8_-60"><g><rect x="137" y="420" width="154" height="30" fill="none" stroke="none" pointer-events="all"/><path d="M 137 420 M 291 420 M 291 450 M 137 450" fill="none" stroke="rgb(0, 0, 0)" stroke-linecap="square" stroke-miterlimit="10" pointer-events="all"/></g></g><g data-cell-id="HsDV2E3R9TC5ZJ5DnG8_-61"><g><rect x="291" y="420" width="100" height="30" fill="none" stroke="none" pointer-events="all"/><path d="M 291 420 M 391 420 M 391 450 M 291 450" fill="none" stroke="rgb(0, 0, 0)" stroke-linecap="square" stroke-miterlimit="10" pointer-events="all"/></g></g><g data-cell-id="HsDV2E3R9TC5ZJ5DnG8_-62"><g><rect x="391" y="420" width="80" height="30" fill="none" stroke="none" pointer-events="all"/><path d="M 391 420 M 471 420 M 471 450 M 391 450" fill="none" stroke="rgb(0, 0, 0)" stroke-linecap="square" stroke-miterlimit="10" pointer-events="all"/></g></g><g data-cell-id="HsDV2E3R9TC5ZJ5DnG8_-63"><g><rect x="471" y="420" width="90" height="30" fill="none" stroke="none" pointer-events="all"/><path d="M 471 420 M 561 420 M 561 450 M 471 450" fill="none" stroke="rgb(0, 0, 0)" stroke-linecap="square" stroke-miterlimit="10" pointer-events="all"/></g></g><g data-cell-id="HsDV2E3R9TC5ZJ5DnG8_-64"><g><rect x="561" y="420" width="126" height="30" fill="none" stroke="none" pointer-events="all"/><path d="M 561 420 M 687 420 M 687 450 M 561 450" fill="none" stroke="rgb(0, 0, 0)" stroke-linecap="square" stroke-miterlimit="10" pointer-events="all"/></g></g></g><g data-cell-id="HsDV2E3R9TC5ZJ5DnG8_-65"><g/><g data-cell-id="HsDV2E3R9TC5ZJ5DnG8_-66"><g><rect x="77" y="450" width="60" height="30" fill="none" stroke="none" pointer-events="all"/><path d="M 77 450 M 137 450 M 137 480 M 77 480" fill="none" stroke="rgb(0, 0, 0)" stroke-linecap="square" stroke-miterlimit="10" pointer-events="all"/></g></g><g data-cell-id="HsDV2E3R9TC5ZJ5DnG8_-67"><g><rect x="137" y="450" width="154" height="30" fill="none" stroke="none" pointer-events="all"/><path d="M 137 450 M 291 450 M 291 480 M 137 480" fill="none" stroke="rgb(0, 0, 0)" stroke-linecap="square" stroke-miterlimit="10" pointer-events="all"/></g></g><g data-cell-id="HsDV2E3R9TC5ZJ5DnG8_-68"><g><rect x="291" y="450" width="100" height="30" fill="none" stroke="none" pointer-events="all"/><path d="M 291 450 M 391 450 M 391 480 M 291 480" fill="none" stroke="rgb(0, 0, 0)" stroke-linecap="square" stroke-miterlimit="10" pointer-events="all"/></g></g><g data-cell-id="HsDV2E3R9TC5ZJ5DnG8_-69"><g><rect x="391" y="450" width="80" height="30" fill="none" stroke="none" pointer-events="all"/><path d="M 391 450 M 471 450 M 471 480 M 391 480" fill="none" stroke="rgb(0, 0, 0)" stroke-linecap="square" stroke-miterlimit="10" pointer-events="all"/></g></g><g data-cell-id="HsDV2E3R9TC5ZJ5DnG8_-70"><g><rect x="471" y="450" width="90" height="30" fill="none" stroke="none" pointer-events="all"/><path d="M 471 450 M 561 450 M 561 480 M 471 480" fill="none" stroke="rgb(0, 0, 0)" stroke-linecap="square" stroke-miterlimit="10" pointer-events="all"/></g></g><g data-cell-id="HsDV2E3R9TC5ZJ5DnG8_-71"><g><rect x="561" y="450" width="126" height="30" fill="none" stroke="none" pointer-events="all"/><path d="M 561 450 M 687 450 M 687 480 M 561 480" fill="none" stroke="rgb(0, 0, 0)" stroke-linecap="square" stroke-miterlimit="10" pointer-events="all"/></g></g></g><g data-cell-id="HsDV2E3R9TC5ZJ5DnG8_-72"><g/><g data-cell-id="HsDV2E3R9TC5ZJ5DnG8_-73"><g><rect x="77" y="480" width="60" height="30" fill="none" stroke="none" pointer-events="all"/><path d="M 77 480 M 137 480 M 137 510 M 77 510" fill="none" stroke="rgb(0, 0, 0)" stroke-linecap="square" stroke-miterlimit="10" pointer-events="all"/></g></g><g data-cell-id="HsDV2E3R9TC5ZJ5DnG8_-74"><g><rect x="137" y="480" width="154" height="30" fill="none" stroke="none" pointer-events="all"/><path d="M 137 480 M 291 480 M 291 510 M 137 510" fill="none" stroke="rgb(0, 0, 0)" stroke-linecap="square" stroke-miterlimit="10" pointer-events="all"/></g></g><g data-cell-id="HsDV2E3R9TC5ZJ5DnG8_-75"><g><rect x="291" y="480" width="100" height="30" fill="none" stroke="none" pointer-events="all"/><path d="M 291 480 M 391 480 M 391 510 M 291 510" fill="none" stroke="rgb(0, 0, 0)" stroke-linecap="square" stroke-miterlimit="10" pointer-events="all"/></g></g><g data-cell-id="HsDV2E3R9TC5ZJ5DnG8_-76"><g><rect x="391" y="480" width="80" height="30" fill="none" stroke="none" pointer-events="all"/><path d="M 391 480 M 471 480 M 471 510 M 391 510" fill="none" stroke="rgb(0, 0, 0)" stroke-linecap="square" stroke-miterlimit="10" pointer-events="all"/></g></g><g data-cell-id="HsDV2E3R9TC5ZJ5DnG8_-77"><g><rect x="471" y="480" width="90" height="30" fill="none" stroke="none" pointer-events="all"/><path d="M 471 480 M 561 480 M 561 510 M 471 510" fill="none" stroke="rgb(0, 0, 0)" stroke-linecap="square" stroke-miterlimit="10" pointer-events="all"/></g></g><g data-cell-id="HsDV2E3R9TC5ZJ5DnG8_-78"><g><rect x="561" y="480" width="126" height="30" fill="none" stroke="none" pointer-events="all"/><path d="M 561 480 M 687 480 M 687 510 M 561 510" fill="none" stroke="rgb(0, 0, 0)" stroke-linecap="square" stroke-miterlimit="10" pointer-events="all"/></g></g></g><g data-cell-id="HsDV2E3R9TC5ZJ5DnG8_-79"><g/><g data-cell-id="HsDV2E3R9TC5ZJ5DnG8_-80"><g><rect x="77" y="510" width="60" height="30" fill="none" stroke="none" pointer-events="all"/><path d="M 77 510 M 137 510 M 137 540 M 77 540" fill="none" stroke="rgb(0, 0, 0)" stroke-linecap="square" stroke-miterlimit="10" pointer-events="all"/></g></g><g data-cell-id="HsDV2E3R9TC5ZJ5DnG8_-81"><g><rect x="137" y="510" width="154" height="30" fill="none" stroke="none" pointer-events="all"/><path d="M 137 510 M 291 510 M 291 540 M 137 540" fill="none" stroke="rgb(0, 0, 0)" stroke-linecap="square" stroke-miterlimit="10" pointer-events="all"/></g></g><g data-cell-id="HsDV2E3R9TC5ZJ5DnG8_-82"><g><rect x="291" y="510" width="100" height="30" fill="none" stroke="none" pointer-events="all"/><path d="M 291 510 M 391 510 M 391 540 M 291 540" fill="none" stroke="rgb(0, 0, 0)" stroke-linecap="square" stroke-miterlimit="10" pointer-events="all"/></g></g><g data-cell-id="HsDV2E3R9TC5ZJ5DnG8_-83"><g><rect x="391" y="510" width="80" height="30" fill="none" stroke="none" pointer-events="all"/><path d="M 391 510 M 471 510 M 471 540 M 391 540" fill="none" stroke="rgb(0, 0, 0)" stroke-linecap="square" stroke-miterlimit="10" pointer-events="all"/></g></g><g data-cell-id="HsDV2E3R9TC5ZJ5DnG8_-84"><g><rect x="471" y="510" width="90" height="30" fill="none" stroke="none" pointer-events="all"/><path d="M 471 510 M 561 510 M 561 540 M 471 540" fill="none" stroke="rgb(0, 0, 0)" stroke-linecap="square" stroke-miterlimit="10" pointer-events="all"/></g></g><g data-cell-id="HsDV2E3R9TC5ZJ5DnG8_-85"><g><rect x="561" y="510" width="126" height="30" fill="none" stroke="none" pointer-events="all"/><path d="M 561 510 M 687 510 M 687 540 M 561 540" fill="none" stroke="rgb(0, 0, 0)" stroke-linecap="square" stroke-miterlimit="10" pointer-events="all"/></g></g></g></g><g data-cell-id="kupvqcwkQHlBkFD469Bs-0"><g><rect x="32" y="100" width="270" height="60" fill="none" stroke="none" pointer-events="all"/></g><g><g transform="translate(-0.5 -0.5)"><switch><foreignObject pointer-events="none" width="100%" height="100%" requiredFeatures="http://www.w3.org/TR/SVG11/feature#Extensibility" style="overflow: visible; text-align: left;"><div xmlns="http://www.w3.org/1999/xhtml" style="display: flex; align-items: unsafe center; justify-content: unsafe center; width: 268px; height: 1px; padding-top: 130px; margin-left: 33px;"><div data-drawio-colors="color: rgb(0, 0, 0); " style="box-sizing: border-box; font-size: 0px; text-align: center;"><div style="display: inline-block; font-size: 12px; font-family: Helvetica; color: rgb(0, 0, 0); line-height: 1.2; pointer-events: all; white-space: normal; overflow-wrap: normal;">下記の内容で上書きしますか？</div></div></div></foreignObject><text x="167" y="134" fill="rgb(0, 0, 0)" font-family="&quot;Helvetica&quot;" font-size="12px" text-anchor="middle">下記の内容で上書きしますか？</text></switch></g></g></g></g><g data-cell-id="uesbl0IYvUySg_IaHAjN-9"><g data-cell-id="uesbl0IYvUySg_IaHAjN-10"><g><ellipse cx="87" cy="80" rx="10" ry="10" fill="#fff2cc" stroke="#d6b656" pointer-events="all"/></g><g><g transform="translate(-0.5 -0.5)"><switch><foreignObject pointer-events="none" width="100%" height="100%" requiredFeatures="http://www.w3.org/TR/SVG11/feature#Extensibility" style="overflow: visible; text-align: left;"><div xmlns="http://www.w3.org/1999/xhtml" style="display: flex; align-items: unsafe center; justify-content: unsafe center; width: 18px; height: 1px; padding-top: 80px; margin-left: 78px;"><div data-drawio-colors="color: rgb(0, 0, 0); " style="box-sizing: border-box; font-size: 0px; text-align: center;"><div style="display: inline-block; font-size: 10px; font-family: Helvetica; color: rgb(0, 0, 0); line-height: 1.2; pointer-events: all; white-space: normal; overflow-wrap: normal;">1</div></div></div></foreignObject><text x="87" y="83" fill="rgb(0, 0, 0)" font-family="&quot;Helvetica&quot;" font-size="10px" text-anchor="middle">1</text></switch></g></g></g><g data-cell-id="uesbl0IYvUySg_IaHAjN-11"><g><ellipse cx="81" cy="109" rx="10" ry="10" fill="#fff2cc" stroke="#d6b656" pointer-events="all"/></g><g><g transform="translate(-0.5 -0.5)"><switch><foreignObject pointer-events="none" width="100%" height="100%" requiredFeatures="http://www.w3.org/TR/SVG11/feature#Extensibility" style="overflow: visible; text-align: left;"><div xmlns="http://www.w3.org/1999/xhtml" style="display: flex; align-items: unsafe center; justify-content: unsafe center; width: 18px; height: 1px; padding-top: 109px; margin-left: 72px;"><div data-drawio-colors="color: rgb(0, 0, 0); " style="box-sizing: border-box; font-size: 0px; text-align: center;"><div style="display: inline-block; font-size: 10px; font-family: Helvetica; color: rgb(0, 0, 0); line-height: 1.2; pointer-events: all; white-space: normal; overflow-wrap: normal;">2</div></div></div></foreignObject><text x="81" y="112" fill="rgb(0, 0, 0)" font-family="&quot;Helvetica&quot;" font-size="10px" text-anchor="middle">2</text></switch></g></g></g><g data-cell-id="uesbl0IYvUySg_IaHAjN-12"><g><ellipse cx="78" cy="185" rx="10" ry="10" fill="#fff2cc" stroke="#d6b656" pointer-events="all"/></g><g><g transform="translate(-0.5 -0.5)"><switch><foreignObject pointer-events="none" width="100%" height="100%" requiredFeatures="http://www.w3.org/TR/SVG11/feature#Extensibility" style="overflow: visible; text-align: left;"><div xmlns="http://www.w3.org/1999/xhtml" style="display: flex; align-items: unsafe center; justify-content: unsafe center; width: 18px; height: 1px; padding-top: 185px; margin-left: 69px;"><div data-drawio-colors="color: rgb(0, 0, 0); " style="box-sizing: border-box; font-size: 0px; text-align: center;"><div style="display: inline-block; font-size: 10px; font-family: Helvetica; color: rgb(0, 0, 0); line-height: 1.2; pointer-events: all; white-space: normal; overflow-wrap: normal;">3</div></div></div></foreignObject><text x="78" y="188" fill="rgb(0, 0, 0)" font-family="&quot;Helvetica&quot;" font-size="10px" text-anchor="middle">3</text></switch></g></g></g><g data-cell-id="UaAuU2bIQ50izZma2t8a-0"><g><ellipse cx="103" cy="577" rx="10" ry="10" fill="#fff2cc" stroke="#d6b656" pointer-events="all"/></g><g><g transform="translate(-0.5 -0.5)"><switch><foreignObject pointer-events="none" width="100%" height="100%" requiredFeatures="http://www.w3.org/TR/SVG11/feature#Extensibility" style="overflow: visible; text-align: left;"><div xmlns="http://www.w3.org/1999/xhtml" style="display: flex; align-items: unsafe center; justify-content: unsafe center; width: 18px; height: 1px; padding-top: 577px; margin-left: 94px;"><div data-drawio-colors="color: rgb(0, 0, 0); " style="box-sizing: border-box; font-size: 0px; text-align: center;"><div style="display: inline-block; font-size: 10px; font-family: Helvetica; color: rgb(0, 0, 0); line-height: 1.2; pointer-events: all; white-space: normal; overflow-wrap: normal;">4</div></div></div></foreignObject><text x="103" y="580" fill="rgb(0, 0, 0)" font-family="&quot;Helvetica&quot;" font-size="10px" text-anchor="middle">4</text></switch></g></g></g><g data-cell-id="UaAuU2bIQ50izZma2t8a-1"><g><ellipse cx="510" cy="577" rx="10" ry="10" fill="#fff2cc" stroke="#d6b656" pointer-events="all"/></g><g><g transform="translate(-0.5 -0.5)"><switch><foreignObject pointer-events="none" width="100%" height="100%" requiredFeatures="http://www.w3.org/TR/SVG11/feature#Extensibility" style="overflow: visible; text-align: left;"><div xmlns="http://www.w3.org/1999/xhtml" style="display: flex; align-items: unsafe center; justify-content: unsafe center; width: 18px; height: 1px; padding-top: 577px; margin-left: 501px;"><div data-drawio-colors="color: rgb(0, 0, 0); " style="box-sizing: border-box; font-size: 0px; text-align: center;"><div style="display: inline-block; font-size: 10px; font-family: Helvetica; color: rgb(0, 0, 0); line-height: 1.2; pointer-events: all; white-space: normal; overflow-wrap: normal;">5</div></div></div></foreignObject><text x="510" y="580" fill="rgb(0, 0, 0)" font-family="&quot;Helvetica&quot;" font-size="10px" text-anchor="middle">5</text></switch></g></g></g></g><g data-cell-id="uesbl0IYvUySg_IaHAjN-104"><g data-cell-id="UaAuU2bIQ50izZma2t8a-2"><g><rect x="77" y="210" width="280" height="190" rx="28.5" ry="28.5" fill="#e1d5e7" stroke="#9673a6" pointer-events="all"/></g><g><g transform="translate(-0.5 -0.5)"><switch><foreignObject pointer-events="none" width="100%" height="100%" requiredFeatures="http://www.w3.org/TR/SVG11/feature#Extensibility" style="overflow: visible; text-align: left;"><div xmlns="http://www.w3.org/1999/xhtml" style="display: flex; align-items: unsafe center; justify-content: unsafe flex-start; width: 278px; height: 1px; padding-top: 305px; margin-left: 79px;"><div data-drawio-colors="color: rgb(0, 0, 0); " style="box-sizing: border-box; font-size: 0px; text-align: left;"><div style="display: inline-block; font-size: 12px; font-family: Helvetica; color: rgb(0, 0, 0); line-height: 1.2; pointer-events: all; white-space: normal; overflow-wrap: normal;">前画面でアップロードしたCSVの内容を表示する</div></div></div></foreignObject><text x="79" y="309" fill="rgb(0, 0, 0)" font-family="&quot;Helvetica&quot;" font-size="12px">前画面でアップロードしたCSVの内容を表示する</text></switch></g></g></g></g></g></g></svg>