<?xml version="1.0" encoding="UTF-8"?>
<!DOCTYPE svg PUBLIC "-//W3C//DTD SVG 1.1//EN" "http://www.w3.org/Graphics/SVG/1.1/DTD/svg11.dtd">
<svg xmlns="http://www.w3.org/2000/svg" xmlns:xlink="http://www.w3.org/1999/xlink" version="1.1" width="483px" height="162px" viewBox="-0.5 -0.5 483 162"><defs/><g><g data-cell-id="0"><g data-cell-id="1"><g data-cell-id="0CkEHbwqtRXtURIBHNAh-5"><g><rect x="0" y="0" width="481" height="160" fill="rgb(255, 255, 255)" stroke="rgb(0, 0, 0)" pointer-events="all"/></g></g></g><g data-cell-id="8iCSzhTw84ufodVcN5DK-2"><g data-cell-id="0CkEHbwqtRXtURIBHNAh-3"><g><rect x="238.4" y="80" width="3.2" height="10" rx="1.6" ry="1.6" fill="#cccccc" stroke="none" pointer-events="all"/><rect x="250" y="98.4" width="10" height="3.2" rx="1.6" ry="1.6" fill="#cccccc" stroke="none" pointer-events="all"/><path d="M 247.33 83.6 L 244.49 88.88 C 243.97 89.86 244.33 91.07 245.3 91.59 L 244.6 91.21 C 245.57 91.74 246.78 91.37 247.31 90.4 L 250.15 85.12 C 250.67 84.14 250.31 82.93 249.34 82.41 L 250.04 82.79 C 249.07 82.26 247.86 82.63 247.33 83.6 Z M 255.03 89.91 L 249.72 92.7 C 249.25 92.95 248.9 93.37 248.74 93.88 C 248.58 94.39 248.63 94.93 248.88 95.4 L 248.51 94.7 C 248.76 95.17 249.18 95.52 249.69 95.67 C 250.19 95.83 250.74 95.78 251.21 95.53 L 256.52 92.74 C 256.99 92.49 257.34 92.07 257.5 91.56 C 257.66 91.05 257.61 90.51 257.36 90.04 L 257.73 90.74 C 257.48 90.27 257.06 89.92 256.55 89.77 C 256.05 89.61 255.5 89.66 255.03 89.91 Z M 229.77 85.09 L 232.72 90.32 C 233.26 91.28 234.48 91.62 235.44 91.08 L 234.75 91.47 C 235.71 90.93 236.05 89.71 235.51 88.75 L 232.56 83.52 C 232.02 82.56 230.8 82.22 229.84 82.76 L 230.53 82.37 C 229.57 82.91 229.23 84.13 229.77 85.09 Z M 230.32 92.78 L 225.07 89.86 C 224.61 89.61 224.06 89.54 223.55 89.69 C 223.04 89.84 222.61 90.18 222.35 90.64 L 222.74 89.94 C 222.48 90.41 222.42 90.96 222.57 91.47 C 222.71 91.98 223.06 92.41 223.52 92.66 L 228.77 95.58 C 229.23 95.83 229.78 95.9 230.29 95.75 C 230.8 95.6 231.23 95.26 231.49 94.8 L 231.1 95.5 C 231.36 95.03 231.42 94.48 231.27 93.97 C 231.13 93.46 230.78 93.03 230.32 92.78 Z" fill="#cccccc" stroke="none" pointer-events="all"/><rect x="220" y="98.4" width="10" height="3.2" rx="1.6" ry="1.6" fill="#000000" stroke="none" pointer-events="all"/><path d="M 249.6 107.42 L 254.91 110.21 C 255.38 110.46 255.93 110.51 256.43 110.35 C 256.94 110.2 257.36 109.85 257.61 109.38 L 257.24 110.08 C 257.75 109.11 257.38 107.9 256.4 107.38 L 251.09 104.59 C 250.62 104.34 250.07 104.29 249.57 104.45 C 249.06 104.6 248.64 104.95 248.39 105.42 L 248.76 104.72 C 248.25 105.69 248.62 106.9 249.6 107.42 Z M 244.46 111.29 L 247.4 116.52 C 247.66 116.98 248.09 117.32 248.6 117.47 C 249.11 117.61 249.66 117.54 250.12 117.28 L 249.42 117.68 C 249.88 117.42 250.22 116.98 250.37 116.47 C 250.51 115.96 250.44 115.41 250.18 114.95 L 247.24 109.72 C 246.98 109.26 246.55 108.92 246.04 108.77 C 245.53 108.63 244.98 108.7 244.52 108.96 L 245.22 108.56 C 244.76 108.82 244.42 109.26 244.27 109.77 C 244.13 110.28 244.2 110.83 244.46 111.29 Z" fill="#999999" stroke="none" pointer-events="all"/><rect x="238.4" y="110" width="3.2" height="10" rx="1.6" ry="1.6" fill="#666666" stroke="none" pointer-events="all"/><path d="M 232.71 109.72 L 229.78 114.96 C 229.52 115.42 229.46 115.97 229.6 116.48 C 229.74 116.99 230.08 117.42 230.55 117.68 L 229.85 117.29 C 230.31 117.55 230.86 117.61 231.37 117.47 C 231.88 117.32 232.31 116.98 232.57 116.52 L 235.5 111.28 C 235.76 110.82 235.82 110.27 235.68 109.76 C 235.54 109.25 235.2 108.82 234.73 108.56 L 235.43 108.95 C 234.97 108.69 234.42 108.63 233.91 108.77 C 233.4 108.92 232.97 109.26 232.71 109.72 Z" fill="#666666" stroke="none" pointer-events="all"/><path d="M 228.73 104.48 L 223.52 107.46 C 222.56 108.01 222.23 109.23 222.78 110.19 L 222.38 109.5 C 222.64 109.96 223.08 110.3 223.59 110.43 C 224.1 110.57 224.65 110.5 225.11 110.24 L 230.32 107.26 C 231.28 106.71 231.61 105.49 231.06 104.53 L 231.46 105.22 C 231.2 104.76 230.76 104.42 230.25 104.29 C 229.74 104.15 229.19 104.22 228.73 104.48 Z" fill="#333333" stroke="none" pointer-events="all"/></g></g><g data-cell-id="0CkEHbwqtRXtURIBHNAh-6"><g><rect x="0" y="0" width="480" height="160" fill-opacity="0.5" fill="#999999" stroke="rgb(0, 0, 0)" stroke-opacity="0.5" pointer-events="all"/></g></g><g data-cell-id="0CkEHbwqtRXtURIBHNAh-8"><g><rect x="0" y="40" width="480" height="30" fill="none" stroke="none" pointer-events="all"/></g><g><g transform="translate(-0.5 -0.5)"><switch><foreignObject pointer-events="none" width="100%" height="100%" requiredFeatures="http://www.w3.org/TR/SVG11/feature#Extensibility" style="overflow: visible; text-align: left;"><div xmlns="http://www.w3.org/1999/xhtml" style="display: flex; align-items: unsafe center; justify-content: unsafe center; width: 478px; height: 1px; padding-top: 55px; margin-left: 1px;"><div data-drawio-colors="color: rgb(0, 0, 0); " style="box-sizing: border-box; font-size: 0px; text-align: center;"><div style="display: inline-block; font-size: 12px; font-family: Helvetica; color: rgb(0, 0, 0); line-height: 1.2; pointer-events: all; white-space: normal; overflow-wrap: normal;">&lt;メッセージ&gt;</div></div></div></foreignObject><text x="240" y="59" fill="rgb(0, 0, 0)" font-family="&quot;Helvetica&quot;" font-size="12px" text-anchor="middle">&lt;メッセージ&gt;</text></switch></g></g></g></g><g data-cell-id="kz11Im6pMWOxMSBZosfx-1"><g data-cell-id="GR5jsF9SygZnCBYprLUX-1"><g><ellipse cx="10" cy="14" rx="10" ry="10" fill="#fff2cc" stroke="#d6b656" pointer-events="all"/></g><g><g transform="translate(-0.5 -0.5)"><switch><foreignObject pointer-events="none" width="100%" height="100%" requiredFeatures="http://www.w3.org/TR/SVG11/feature#Extensibility" style="overflow: visible; text-align: left;"><div xmlns="http://www.w3.org/1999/xhtml" style="display: flex; align-items: unsafe center; justify-content: unsafe center; width: 18px; height: 1px; padding-top: 14px; margin-left: 1px;"><div data-drawio-colors="color: rgb(0, 0, 0); " style="box-sizing: border-box; font-size: 0px; text-align: center;"><div style="display: inline-block; font-size: 10px; font-family: Helvetica; color: rgb(0, 0, 0); line-height: 1.2; pointer-events: all; white-space: normal; overflow-wrap: normal;">1</div></div></div></foreignObject><text x="10" y="17" fill="rgb(0, 0, 0)" font-family="&quot;Helvetica&quot;" font-size="10px" text-anchor="middle">1</text></switch></g></g></g><g data-cell-id="GR5jsF9SygZnCBYprLUX-2"><g><ellipse cx="190" cy="50" rx="10" ry="10" fill="#fff2cc" stroke="#d6b656" pointer-events="all"/></g><g><g transform="translate(-0.5 -0.5)"><switch><foreignObject pointer-events="none" width="100%" height="100%" requiredFeatures="http://www.w3.org/TR/SVG11/feature#Extensibility" style="overflow: visible; text-align: left;"><div xmlns="http://www.w3.org/1999/xhtml" style="display: flex; align-items: unsafe center; justify-content: unsafe center; width: 18px; height: 1px; padding-top: 50px; margin-left: 181px;"><div data-drawio-colors="color: rgb(0, 0, 0); " style="box-sizing: border-box; font-size: 0px; text-align: center;"><div style="display: inline-block; font-size: 10px; font-family: Helvetica; color: rgb(0, 0, 0); line-height: 1.2; pointer-events: all; white-space: normal; overflow-wrap: normal;">2</div></div></div></foreignObject><text x="190" y="53" fill="rgb(0, 0, 0)" font-family="&quot;Helvetica&quot;" font-size="10px" text-anchor="middle">2</text></switch></g></g></g><g data-cell-id="GR5jsF9SygZnCBYprLUX-3"><g><ellipse cx="200" cy="100" rx="10" ry="10" fill="#fff2cc" stroke="#d6b656" pointer-events="all"/></g><g><g transform="translate(-0.5 -0.5)"><switch><foreignObject pointer-events="none" width="100%" height="100%" requiredFeatures="http://www.w3.org/TR/SVG11/feature#Extensibility" style="overflow: visible; text-align: left;"><div xmlns="http://www.w3.org/1999/xhtml" style="display: flex; align-items: unsafe center; justify-content: unsafe center; width: 18px; height: 1px; padding-top: 100px; margin-left: 191px;"><div data-drawio-colors="color: rgb(0, 0, 0); " style="box-sizing: border-box; font-size: 0px; text-align: center;"><div style="display: inline-block; font-size: 10px; font-family: Helvetica; color: rgb(0, 0, 0); line-height: 1.2; pointer-events: all; white-space: normal; overflow-wrap: normal;">3</div></div></div></foreignObject><text x="200" y="103" fill="rgb(0, 0, 0)" font-family="&quot;Helvetica&quot;" font-size="10px" text-anchor="middle">3</text></switch></g></g></g></g></g></g><switch><g requiredFeatures="http://www.w3.org/TR/SVG11/feature#Extensibility"/><a transform="translate(0,-5)" xlink:href="https://www.drawio.com/doc/faq/svg-export-text-problems" target="_blank"><text text-anchor="middle" font-size="10px" x="50%" y="100%">Text is not SVG - cannot display</text></a></switch></svg>